<svg width="1912" height="941" viewBox="0 0 1912 941" fill="none" xmlns="http://www.w3.org/2000/svg">
<path d="M1842.85 -997C2440.16 -997 2921.57 -507.555 2911.7 89.665V89.667L2905.15 486.432L2911.61 852.645C2922.15 1450.32 2440.54 1940.5 1842.77 1940.5H795.961C489.3 1940.5 201.399 1809.14 0.998047 1586.24C-524.449 1518.76 -930.5 1069.8 -930.5 526V172C-930.5 -319.977 -598.156 -734.329 -145.729 -858.8C12.3347 -948.068 192.913 -997 379.979 -997H1842.85V3H379.979C356.88 3.00014 335.314 14.5582 322.523 33.792L296.977 72.208L296.371 73.1035C283.716 91.5034 262.931 102.642 240.603 102.991L239.521 103H138.5C100.392 103 69.5 133.892 69.5 172V526C69.5 563.81 99.9117 594.517 137.608 594.994L138.5 595H409C523.209 609.127 570.531 629.822 616 696.5L736.112 905.839C748.414 927.278 771.243 940.5 795.961 940.5H1842.77C1881.05 940.5 1911.96 909.353 1911.77 871.186L1911.76 870.283L1905 487L1911.84 73.1406C1912.47 34.8932 1881.89 3.49394 1843.75 3.00586L1842.85 3V-997Z" fill="white"/>
</svg>
